<?xml version="1.0" encoding="UTF-8"?>
<svg width="2114px" height="1368px" viewBox="0 0 2114 1368" version="1.1" xmlns="http://www.w3.org/2000/svg" xmlns:xlink="http://www.w3.org/1999/xlink">
    <!-- Generator: Sketch 48.2 (47327) - http://www.bohemiancoding.com/sketch -->
    <title>pattern5</title>
    <desc>Created with Sketch.</desc>
    <defs></defs>
    <g id="Page-1" stroke="none" stroke-width="1" fill="none" fill-rule="evenodd">
        <g id="pattern5" fill="#FCF9FF" fill-rule="nonzero">
            <path d="M982,0 C983.667579,62.6937214 994.688716,108.828479 1015.06341,138.404274 C1056.49881,198.551672 1127.16564,264.173508 1253.32923,294.298833 C1581.8587,372.745057 1452.09675,465.264549 1599.0224,563.753236 C1745.94805,662.241923 1950.29771,628.676543 1960.52457,811.108919 C1967.34247,932.730504 2018.50095,1015.36585 2114,1059.01495 L2114,0 L982,0 Z" id="Path-2"></path>
            <path d="M0.282496,308.57037 C1.9500748,371.264092 12.9712118,417.39885 33.3459072,446.974644 C74.7813084,507.122043 145.448135,572.743878 271.611722,602.869203 C600.141195,681.315427 470.37925,773.834919 617.304897,872.323607 C764.230544,970.812294 968.580206,937.246914 978.807064,1119.67928 C985.624969,1241.30086 1036.78344,1323.93621 1132.28248,1367.58531 L1132.28248,308.57037 L0.282496,308.57037 Z" id="Path-2" transform="translate(566.282490, 838.077842) rotate(-180.000000) translate(-566.282490, -838.077842) "></path>
        </g>
    </g>
</svg>